<svg xmlns="http://www.w3.org/2000/svg" viewBox="-4.9115 -10.252 108.053 138.402" x="0px" y="0px"><path d="m50.73,40.21c.07.2-.03.41-.23.49-.71.25-3.96,1.36-5.51,1.36-.22,0-.41-.02-.55-.07-.2-.07-.3-.29-.23-.49.07-.2.29-.3.49-.23.64.23,3.63-.61,5.54-1.28.2-.07.42.03.49.23Zm18.63,3.07c.07.21.05.44-.07.66-.2.4-.69.75-1.3.93-.29.09-.58.13-.84.13-.61,0-1.09-.24-1.23-.66-.07-.21-.05-.44.07-.66.2-.4.69-.75,1.3-.93.98-.31,1.86-.08,2.06.52Zm-.73.24c-.02-.05-.2-.13-.5-.13-.17,0-.37.03-.61.1-.46.14-.75.38-.84.55,0,.16.44.31,1.08.11.46-.14.75-.38.84-.55l.02-.08Zm-28.24,9.55c0-.14-.11-.25-.26-.25h-3.84c-.14,0-.26.11-.26.25s.11.25.26.25h3.84c.14,0,.26-.11.26-.25Zm.92,1.89c-.05-.13-.2-.2-.33-.15l-3.32,1.26c-.13.05-.2.2-.15.33.04.1.14.16.24.16.03,0,.06,0,.09-.02l3.32-1.26c.13-.05.2-.2.15-.33Zm.72,2.13l-2.8,2.8c-.1.1-.1.26,0,.36.05.05.12.07.18.07s.13-.02.18-.08l2.8-2.8c.1-.1.1-.26,0-.36-.1-.1-.26-.1-.36,0Zm3.1,1.75l-2.33,2.91c-.09.11-.07.27.04.36.05.04.1.05.16.05.08,0,.15-.03.2-.1l2.33-2.91c.09-.11.07-.27-.04-.36-.11-.09-.27-.07-.36.04Zm2.54-50.82l-1.34,1.16s-.11.06-.17.06c-.07,0-.13-.03-.18-.08l-1.43-1.43c-.09-.09-.1-.23-.02-.33.03-.05.85-1.1,1.85-.75.92.32,1.32,1.02,1.34,1.05.06.1.04.24-.05.32Zm-.51-.23c-.16-.19-.46-.49-.94-.66-.46-.16-.9.2-1.13.42l1.09,1.09.98-.85Zm31.83,40.23c.12.07.16.23.09.35-.05.08-.13.12-.22.12-.04,0-.09-.01-.13-.04l-.87-.52c.31,2.93.41,5.7.1,6.55-.1.28-.27.47-.46.64.38.48.57,1.04.56,1.66-.03,1.4-1.04,2.74-1.98,3.52-.61.51-1.38.93-2.2,1.37-3.03,1.63-6.46,3.48-2.5,11.18,5.24,10.19-4.94,22.07-5.04,22.19-.08.09-.18.13-.29.13-.09,0-.18-.03-.25-.09-.16-.14-.18-.38-.04-.54.1-.11,9.95-11.61,4.94-21.35-4.3-8.36-.35-10.48,2.81-12.19.78-.42,1.52-.82,2.07-1.28,1.01-.84,1.68-2,1.71-2.95,0-.02,0-.04,0-.06-2.62.92-5.64,1.81-7.61,1.81-.75,0-1.36-.13-1.72-.43-1.01-.83-1.17-2.7-1.3-4.35-.08-.94-.15-1.82-.37-2.25-.68-1.3-1.73-7.36-1.68-9.17.02-1.04.78-3.6,2.96-4.93,1.42-.87,3.13-1,5.08-.43-.84-.65-1.8-1.29-2.88-1.98-1.55-1-3.43-1.08-5.25-1.16-1.49-.06-3.03-.13-4.38-.7-.2-.08-.29-.3-.2-.5.08-.19.31-.28.5-.2,1.23.51,2.64.58,4.12.64.35.01.7.03,1.05.05-.99-.53-2.29-1.17-3.5-1.56-6.89-2.22-16.87.18-22.72,5.45-.05.04-.1.05-.16.06,0,0,0,0,0,.01-.05.2-.26.33-.47.28-.04,0-2.68-.64-4.65-.02,1.56.41,4.14,1.25,4.63,2.35.09.19,0,.42-.2.5-.05.02-.1.03-.15.03-.15,0-.29-.08-.35-.23-.35-.78-3.07-1.7-4.98-2.14-.29.22-.54.49-.72.83-.93,1.74-1.51,1.99-2.08,2.1-.21.04-.27.05-.42.36-.23.46-.13,1.95.64,3.41.63,1.19,1.86,2.68,4.15,3.03.21.03.35.23.32.43-.03.19-.19.32-.38.32-.02,0-.04,0-.06,0-.94-.14-1.79-.49-2.54-.99-5.83,9.68-12.03,22.21-12.1,22.34-.07.13-.2.21-.35.21-.06,0-.11-.01-.17-.04-.19-.09-.27-.32-.18-.51.06-.13,6.31-12.75,12.17-22.47-.62-.53-1.15-1.19-1.56-1.97-.86-1.64-1.01-3.37-.65-4.1.29-.6.61-.7.96-.77.3-.06.72-.14,1.55-1.71,1.51-2.85,6.26-1.95,7.15-1.75.02-.05.02-.1.07-.14,2.54-2.29,5.85-4.05,9.35-5.15l2.91-4.03c-.55-.5-1.09-1.51-1.38-2.12-2.69-.71-5.65-1.82-6.77-3.44-2.35-3.39-4.5-10.59-1.68-15.29,1.77-2.96,3.89-3.3,4.99-3.23,1.54.08,2.73.98,3.12,1.81.39.86.44,1.85.16,2.89,1.2.39,5.01,1.92,8.14,6.58,1.47,2.18,2.47,3.21,3.35,4.11,1.29,1.32,2.22,2.28,3.65,5.86.78.67,8.97,7.72,9.88,9.97.06.14.02.3-.08.41-.02.02-.34.33-.98.33-.33,0-.75-.09-1.26-.35,0,.09-.01.18-.03.27-.06.2-.14.35-.24.47,2.01,1.39,3.52,2.73,4.41,4.64,0,0,0,0,0,0,0,0,0,0,0,0,.27.58.54,1.63.78,2.91,0,0,0,0,0,0,.12.63.24,1.31.34,2.02h1.36c.14,0,.26.11.26.25s-.11.25-.26.25h-1.28c.08.55.15,1.11.21,1.68l1.2.72Zm-2.89-6.22c.01.07.01.15.04.22,0,.02.02.03.03.05-.02-.09-.04-.19-.06-.27Zm-24.37-15.01c.26.06.5.03.59-.07.1-.12.09-.45-.14-1.01-.46-.09-.95-.2-1.48-.32.41.75.83,1.35,1.03,1.41Zm-2.35,4.15c1.12-.3,2.25-.53,3.38-.7l2.96-3.6c-.52-.21-.86-.41-1.01-.5-.23-.03-.84-.12-1.66-.27.16.57.11,1.01-.14,1.32-.21.25-.54.39-.92.39-.05,0-.11-.02-.17-.02l-2.44,3.38Zm18.11,2.38c.36.07.71.16,1.06.27l-5.98-5.31c-.82-.16-1.81-.7-2.77-1.23-.69-.38-1.34-.74-1.87-.92-.2-.07-.3-.29-.23-.48.07-.2.29-.3.49-.23.59.2,1.27.58,1.98.97.94.52,1.92,1.05,2.63,1.16.07.01.14.04.2.09l8.35,7.42c.04-.06.08-.13.1-.23.09-.36-.06-.85-.43-1.43-1.1-1.71-5.43-4.83-5.47-4.86-.17-.12-.21-.36-.08-.53.12-.17.37-.21.54-.08.18.13,4.49,3.24,5.67,5.07.18.29.31.56.41.82.79.54,1.31.59,1.59.54-1.24-2.07-7.24-7.43-9.57-9.42,0,0-.01-.02-.02-.02,0,0-.01,0-.02-.01-.03-.03-2.95-3.33-5.24-4.31-3.46-1.48-5.46-2.65-5.93-3.49-.1-.18-.04-.41.15-.52.19-.1.42-.04.52.14.37.65,2.45,1.83,5.57,3.17,1.39.59,2.94,1.92,4.04,2.98-.96-2-1.72-2.78-2.7-3.78-.86-.88-1.94-1.98-3.44-4.22-2.99-4.45-6.66-5.92-7.74-6.27-.31.76-.78,1.54-1.41,2.31-.13.16-.38.19-.54.06-.16-.13-.19-.37-.06-.53.73-.89,1.22-1.78,1.46-2.62-.16.09-.3.11-.37.11-.02,0-.04,0-.05,0-.08,0-.15-.06-.19-.13-.04-.07-.04-.16,0-.23l.75-1.53c-.04-.25-.11-.5-.21-.73-.28-.61-1.24-1.3-2.46-1.37-.97-.05-1.91.31-2.76,1.03.44.9.54,1.48.26,1.69-.07.05-.16.09-.26.09-.12,0-.26-.05-.4-.18-.18-.16-.34-.43-.4-.76-.25.3-.49.63-.71,1-2.75,4.57-.28,11.68,1.65,14.47,2,2.89,11.23,4.13,11.32,4.14.06,0,.12.03.17.06,0,0,1.01.68,2.76,1.01.21.04.34.24.3.45-.04.18-.2.31-.38.31-.02,0-.05,0-.07,0-.45-.09-.84-.19-1.19-.3l-2.62,3.19c2.99-.3,5.92-.1,8.45.72,2.25.72,4.75,2.23,5.18,2.5Zm9.31,22.16c-.97.29-2.23,0-2.74-.15-.45.39-1.69,1.35-3.19,1.35-.37,0-.75-.06-1.15-.2-.2-.07-.3-.29-.23-.49s.29-.3.49-.23c1.89.66,3.69-1.12,3.71-1.13,0,0,.01,0,.02-.01v-6.64c0-.14.11-.25.26-.25s.26.11.26.25v6.6c.54.16,2.62.68,3-.38.39-1.06-.07-6.95-.78-10.82-.51-.21-.88-.61-1.05-1.17-.21-.69-.07-1.44.19-1.91-.45-.92-1.08-1.7-1.86-2.43-2.34-1.01-4.33-1.05-5.91-.08-1.98,1.21-2.69,3.61-2.72,4.51-.04,1.72.99,7.71,1.63,8.93.27.52.34,1.41.43,2.44.13,1.55.27,3.31,1.12,4.01.89.73,4.22.17,8.93-1.5-.07-.26-.21-.49-.4-.7Z"/><text x="0.0" y="120.46099999999998" font-size="5.126" font-weight="bold" font-family="Arbeit Regular, Helvetica, Arial-Unicode, Arial, Sans-serif" fill="#000000">Created by Jooyun Lee</text><text x="0.0" y="125.58699999999999" font-size="5.126" font-weight="bold" font-family="Arbeit Regular, Helvetica, Arial-Unicode, Arial, Sans-serif" fill="#000000">from Noun Project</text></svg>